<svg width="18" height="19" viewBox="0 0 18 19" fill="none" xmlns="http://www.w3.org/2000/svg">
<path fill-rule="evenodd" clip-rule="evenodd" d="M3.25921 16.7293C2.09321 15.9214 1.75778 15.6264 1.57157 15.244C1.46055 14.9772 1.42069 14.6879 1.45544 14.4013C1.52384 14.0211 1.59811 13.9136 2.72496 12.5562C3.7144 11.3637 3.82277 11.2434 4.02916 11.1154C4.38949 10.8748 4.83951 10.7888 5.26607 10.8792C5.59092 10.9474 5.81582 11.0732 6.57803 11.6292L7.07489 11.9918C7.20693 12.0868 7.39013 12.0905 7.52942 12.0009C9.10005 10.8667 10.3433 9.37866 11.1415 7.67748C11.2228 7.4829 11.1619 7.2631 10.9908 7.134L10.5209 6.78425C10.2196 6.56943 9.93224 6.33799 9.66016 6.09127C9.32349 5.69252 9.23189 5.15551 9.41783 4.67066C9.50388 4.43422 9.56515 4.35212 10.588 3.12201C11.6417 1.85352 11.6752 1.81699 11.9333 1.65993C12.357 1.37198 12.9051 1.30717 13.3841 1.48828C13.6528 1.57741 13.7537 1.6396 14.5182 2.1866C14.98 2.51682 15.4027 2.82912 15.4653 2.8798C15.9884 3.34427 16.2958 3.98481 16.3222 4.66589C16.3539 5.91393 16.0945 7.15763 15.5623 8.30944C14.5158 10.8446 12.8147 13.1023 10.6145 14.8762C10.1555 15.2601 9.66696 15.6112 9.15307 15.9267C8.01767 16.7431 6.67294 17.2578 5.26196 17.416C4.51851 17.4556 3.79486 17.2075 3.25921 16.7293Z" stroke="#007AA9" stroke-width="1.5" stroke-linecap="round" stroke-linejoin="round"/>
</svg>
