<svg width="16" height="16" viewBox="0 0 16 16" fill="none" xmlns="http://www.w3.org/2000/svg">
<g clip-path="url(#clip0_16_514)">
<path d="M8.00063 0C3.57508 0 0.000610352 3.57447 0.000610352 8.00002C0.000610352 12.4256 3.57508 16 8.00063 16C12.4262 16 16.0006 12.4256 16.0006 8.00002C16.0006 3.57447 12.4261 0 8.00063 0ZM8.00063 14.6723C4.32403 14.6723 1.32827 11.6766 1.32827 7.99998C1.32827 4.32339 4.32403 1.32766 8.00063 1.32766C11.6772 1.32766 14.673 4.32342 14.673 8.00002C14.673 11.6766 11.6772 14.6723 8.00063 14.6723Z" fill="#007AA9"/>
<path d="M9.90704 7.31913H8.68151V3.98296C8.68151 3.60851 8.37512 3.30212 8.00067 3.30212C7.62621 3.30212 7.31982 3.60851 7.31982 3.98296V8C7.31982 8.37446 7.62621 8.68084 8.00067 8.68084H9.87302C10.2475 8.68084 10.5879 8.37446 10.5879 8C10.5879 7.62554 10.2815 7.31913 9.90704 7.31913Z" fill="#007AA9"/>
</g>
<defs>
<clipPath id="clip0_16_514">
<rect width="16" height="16" fill="white" transform="translate(0.000610352)"/>
</clipPath>
</defs>
</svg>
