<svg width="22" height="22" viewBox="0 0 22 22" fill="none" xmlns="http://www.w3.org/2000/svg">
<path d="M16.2519 8.81889C16.8317 8.20089 16.8317 7.20745 16.8317 5.21845C16.8317 3.22945 16.8317 2.23601 16.2519 1.618M16.2519 8.81889C15.672 9.43689 14.7399 9.43689 12.8738 9.43689H8.91583C7.04966 9.43689 6.11756 9.43689 5.53772 8.81889M16.2519 1.618C15.672 1 14.7399 1 12.8738 1H8.91583C7.04966 1 6.11756 1 5.53772 1.618M5.53772 1.618C4.95789 2.23601 4.95789 3.22945 4.95789 5.21845C4.95789 7.20745 4.95789 8.20089 5.53772 8.81889M11.8843 5.21845C11.8843 5.49815 11.78 5.76639 11.5945 5.96417C11.4089 6.16195 11.1572 6.27306 10.8948 6.27306C10.6324 6.27306 10.3807 6.16195 10.1951 5.96417C10.0096 5.76639 9.90531 5.49815 9.90531 5.21845C9.90531 4.93875 10.0096 4.6705 10.1951 4.47272C10.3807 4.27495 10.6324 4.16384 10.8948 4.16384C11.1572 4.16384 11.4089 4.27495 11.5945 4.47272C11.78 4.6705 11.8843 4.93875 11.8843 5.21845Z" stroke="#007AA9" stroke-width="1.2"/>
<path d="M16.8317 4.16384C16.0444 4.16384 15.2894 3.8305 14.7327 3.23717C14.176 2.64384 13.8632 1.8391 13.8632 1M16.8317 6.27306C16.0444 6.27306 15.2894 6.60639 14.7327 7.19972C14.176 7.79306 13.8632 8.59779 13.8632 9.43689M4.95787 4.16384C5.74515 4.16384 6.50019 3.8305 7.05689 3.23717C7.61358 2.64384 7.92633 1.8391 7.92633 1M4.95787 6.27306C5.74515 6.27306 6.50019 6.60639 7.05689 7.19972C7.61358 7.79306 7.92633 8.59779 7.92633 9.43689M3.96838 19.3376H6.20462C7.204 19.3376 8.21625 19.4494 9.18891 19.6624C10.9255 20.0426 12.7122 20.0848 14.4629 19.7869C15.3217 19.6392 16.1648 19.4125 16.9287 19.0202C17.6174 18.6647 18.4614 18.1659 19.0284 17.6059C19.5943 17.047 20.1841 16.1326 20.6016 15.4176C20.9618 14.8038 20.7877 14.0519 20.2197 13.5952C19.9005 13.3478 19.516 13.2145 19.1214 13.2145C18.7267 13.2145 18.3422 13.3478 18.023 13.5952L16.235 15.0348C15.5424 15.5937 14.7854 16.1073 13.884 16.2602C13.7752 16.2782 13.6614 16.295 13.5426 16.3098M13.5426 16.3098C13.5064 16.3143 13.4701 16.3185 13.4338 16.3225M13.5426 16.3098C13.701 16.2641 13.8462 16.1772 13.9652 16.0567C14.1143 15.9192 14.236 15.7513 14.3232 15.5628C14.4105 15.3744 14.4614 15.1692 14.473 14.9595C14.4846 14.7497 14.4567 14.5396 14.3909 14.3415C14.3251 14.1434 14.2227 13.9614 14.0898 13.8062C13.9609 13.6536 13.8107 13.523 13.6446 13.4191C10.877 11.659 6.56974 12.9994 3.96838 14.9662M13.5426 16.3098C13.5069 16.3181 13.4704 16.3223 13.4338 16.3225M13.4338 16.3225C12.8371 16.3864 12.2359 16.3878 11.6389 16.3267" stroke="#007AA9" stroke-linecap="round"/>
<path d="M3.96846 14.1822C3.96846 13.3085 3.30395 12.6003 2.48423 12.6003C1.66451 12.6003 1 13.3085 1 14.1822V19.4553C1 20.3289 1.66451 21.0372 2.48423 21.0372C3.30395 21.0372 3.96846 20.3289 3.96846 19.4553V14.1822Z" stroke="#007AA9"/>
</svg>
