<svg width="18" height="22" viewBox="0 0 18 22" fill="none" xmlns="http://www.w3.org/2000/svg">
<path d="M14.8642 16.0161C16.0784 16.5451 16.8148 17.2391 16.8148 18.0001C16.8148 19.6571 13.3212 21.0001 9.01231 21.0001C4.70339 21.0001 1.20984 19.6571 1.20984 18.0001C1.20984 17.2401 1.9462 16.5441 3.16046 16.0161" stroke="#007AA9" stroke-width="2" stroke-linecap="round" stroke-linejoin="round"/>
<path d="M13.8887 6.444C13.8887 9.537 9.01216 15 9.01216 15C9.01216 15 4.13562 9.537 4.13562 6.444C4.13562 3.352 6.31934 1 9.01216 1C11.705 1 13.8887 3.352 13.8887 6.444Z" stroke="#007AA9" stroke-width="2" stroke-linecap="round" stroke-linejoin="round"/>
<path d="M9.0123 9C9.55094 9 9.9876 8.55228 9.9876 8C9.9876 7.44772 9.55094 7 9.0123 7C8.47365 7 8.03699 7.44772 8.03699 8C8.03699 8.55228 8.47365 9 9.0123 9Z" stroke="#007AA9" stroke-width="2" stroke-linecap="round" stroke-linejoin="round"/>
</svg>
