<svg width="14" height="22" viewBox="0 0 14 22" fill="none" xmlns="http://www.w3.org/2000/svg">
<path d="M8.73166 1.37698L7.23182 9.53924L12.6653 9.55818L5.26934 20.6234L6.7692 11.6436L1.33606 11.6239L8.73166 1.37698ZM8.73268 4.30306e-05C8.69679 4.30306e-05 8.66091 0.00139847 8.62569 0.00413087C8.39105 0.023774 8.2355 0.105014 8.05107 0.233415C7.94721 0.305133 7.85358 0.391575 7.77289 0.490218C7.74866 0.519823 7.72581 0.55061 7.70441 0.582474L0.255619 10.7936C-0.0385046 11.2112 -0.0817091 11.7623 0.144284 12.2229C0.369944 12.6835 0.82625 12.9754 1.32643 12.9792L5.16365 13.0081L3.95725 20.3704C3.84259 21.0031 4.16829 21.6337 4.74158 21.8878C4.90818 21.9619 5.08764 22.0001 5.26899 22C5.68674 22 6.03005 21.7976 6.28764 21.432L13.7457 10.3668C14.0399 9.94919 14.0827 9.39738 13.8571 8.93747C13.6314 8.47688 13.1751 8.18494 12.6749 8.18118L8.8377 8.17429L10.0311 1.70088C10.0564 1.5949 10.0692 1.48613 10.069 1.37696C10.069 0.632022 9.4964 0.0247852 8.77987 0.000688478C8.76394 0 8.7483 0 8.7327 0L8.73268 4.30306e-05Z" fill="#007AA9"/>
</svg>
